<?xml version="1.0" encoding="UTF-8" standalone="no"?>
<svg width="18px" height="18px" viewBox="0 0 18 18" version="1.1" xmlns="http://www.w3.org/2000/svg" xmlns:xlink="http://www.w3.org/1999/xlink">
    <!-- Generator: Sketch 3.6.1 (26313) - http://www.bohemiancoding.com/sketch -->
    <title>social</title>
    <desc>Created with Sketch.</desc>
    <defs></defs>
    <g id="Page-2" stroke="none" stroke-width="1" fill="none" fill-rule="evenodd">
        <g id="Profile" transform="translate(-30.000000, -524.000000)" fill="#FFFFFF">
            <path d="M41.2076825,536.168552 C40.7643008,536.098056 40.7540724,534.878669 40.7540724,534.878669 C40.7540724,534.878669 42.0571421,533.588735 42.3411309,531.854217 C43.1049526,531.854217 43.5767632,530.010245 42.8127409,529.361393 C42.8446797,528.678446 43.7947688,524 38.9849081,524 C34.1750975,524 35.1251866,528.678446 35.1570752,529.361393 C34.3930529,530.010245 34.8648635,531.854217 35.6287354,531.854217 C35.9127242,533.588735 37.2157437,534.878669 37.2157437,534.878669 C37.2157437,534.878669 37.2055655,536.098056 36.7621337,536.168552 C35.333766,536.395783 30,538.748368 30,541.328234 L47.9698162,541.328234 C47.9698162,538.748368 42.6361003,536.395783 41.2076825,536.168552 L41.2076825,536.168552 Z" id="social"></path>
        </g>
    </g>
</svg>