<?xml version="1.0" encoding="UTF-8" standalone="no"?>
<svg width="18px" height="15px" viewBox="0 0 18 15" version="1.1" xmlns="http://www.w3.org/2000/svg" xmlns:xlink="http://www.w3.org/1999/xlink">
    <!-- Generator: Sketch 3.6.1 (26313) - http://www.bohemiancoding.com/sketch -->
    <title>At Carleton Icon</title>
    <desc>Created with Sketch.</desc>
    <defs></defs>
    <g id="Page-2" stroke="none" stroke-width="1" fill="none" fill-rule="evenodd">
        <g id="Profile" transform="translate(-30.000000, -293.000000)" fill="#FFFFFF">
            <g id="At-Carleton-Icon" transform="translate(30.000000, 293.000000)">
                <path d="M17.51352,0.0868548387 L10.21584,0.0868548387 C9.73968,0.0868548387 9.30936,0.286451613 9,0.605806452 C8.69064,0.286451613 8.26032,0.0868548387 7.78416,0.0868548387 L0.48648,0.0868548387 C0.2184,0.0868548387 0,0.306290323 0,0.5775 L0,11.6109677 C0,11.8812097 0.2184,12.1016129 0.48648,12.1016129 L7.78416,12.1016129 C8.18616,12.1016129 8.51352,12.431371 8.51352,12.8368548 C8.51352,13.1070968 8.73192,13.3272581 9,13.3272581 C9.26904,13.3272581 9.48648,13.1070968 9.48648,12.8368548 C9.48648,12.431371 9.81384,12.1016129 10.21584,12.1016129 L17.51256,12.1016129 C17.78064,12.1016129 17.99904,11.8812097 17.99904,11.6109677 L17.99904,0.5775 C18,0.306290323 17.7816,0.0868548387 17.51352,0.0868548387 L17.51352,0.0868548387 L17.51352,0.0868548387 Z M8.51352,11.2867742 C8.29224,11.1800806 8.0448,11.1205645 7.78416,11.1205645 L0.9732,11.1205645 L0.9732,1.06790323 L7.7832,1.06790323 C8.1852,1.06790323 8.51256,1.39766129 8.51256,1.80314516 L8.51256,11.2867742 L8.51352,11.2867742 L8.51352,11.2867742 Z M17.0268,11.1205645 L10.21584,11.1205645 C9.9552,11.1205645 9.70776,11.1800806 9.48648,11.2867742 L9.48648,1.80314516 C9.48648,1.39766129 9.81384,1.06790323 10.21584,1.06790323 L17.0268,1.06790323 L17.0268,11.1205645 L17.0268,11.1205645 Z" id="Fill-1"></path>
                <path d="M17.51352,12.6193548 L10.21584,12.6193548 C9.94776,12.6193548 9.72936,12.8385484 9.72936,13.11 C9.72936,13.5152419 9.40224,13.8452419 9,13.8452419 C8.59776,13.8452419 8.27064,13.5152419 8.27064,13.11 C8.27064,12.8395161 8.05224,12.6193548 7.78416,12.6193548 L0.48648,12.6193548 C0.2184,12.6193548 0,12.8385484 0,13.11 C0,13.3802419 0.2184,13.6004032 0.48648,13.6004032 L7.36776,13.6004032 C7.57776,14.3083065 8.22936,14.8260484 8.99904,14.8260484 C9.76872,14.8260484 10.42128,14.3083065 10.63032,13.6004032 L17.5116,13.6004032 C17.77968,13.6004032 17.99808,13.3802419 17.99808,13.11 C17.99808,12.8385484 17.7816,12.6193548 17.51352,12.6193548 L17.51352,12.6193548 L17.51352,12.6193548 Z" id="Fill-2"></path>
                <path d="M6.56808,3.10258065 L2.91936,3.10258065 C2.65128,3.10258065 2.43288,3.32274194 2.43288,3.59322581 C2.43288,3.86346774 2.65128,4.08362903 2.91936,4.08362903 L6.56808,4.08362903 C6.83616,4.08362903 7.0548,3.86346774 7.0548,3.59322581 C7.05384,3.32274194 6.83616,3.10258065 6.56808,3.10258065 L6.56808,3.10258065 L6.56808,3.10258065 Z" id="Fill-3"></path>
                <path d="M6.56808,5.55508065 L2.91936,5.55508065 C2.65128,5.55508065 2.43288,5.77524194 2.43288,6.04548387 C2.43288,6.31572581 2.65128,6.53612903 2.91936,6.53612903 L6.56808,6.53612903 C6.83616,6.53612903 7.0548,6.31572581 7.0548,6.04548387 C7.05384,5.77427419 6.83616,5.55508065 6.56808,5.55508065 L6.56808,5.55508065 L6.56808,5.55508065 Z" id="Fill-4"></path>
                <path d="M6.56808,8.0066129 L2.91936,8.0066129 C2.65128,8.0066129 2.43288,8.22677419 2.43288,8.49701613 C2.43288,8.76725806 2.65128,8.98741935 2.91936,8.98741935 L6.56808,8.98741935 C6.83616,8.98741935 7.0548,8.76725806 7.0548,8.49701613 C7.05384,8.22677419 6.83616,8.0066129 6.56808,8.0066129 L6.56808,8.0066129 L6.56808,8.0066129 Z" id="Fill-5"></path>
                <path d="M11.43288,4.08362903 L15.0816,4.08362903 C15.34968,4.08362903 15.56808,3.86346774 15.56808,3.59322581 C15.56808,3.32274194 15.34968,3.10258065 15.0816,3.10258065 L11.43288,3.10258065 C11.1648,3.10258065 10.94616,3.32274194 10.94616,3.59322581 C10.94616,3.86443548 11.16384,4.08362903 11.43288,4.08362903 L11.43288,4.08362903 L11.43288,4.08362903 Z" id="Fill-6"></path>
                <path d="M11.43288,6.53612903 L15.0816,6.53612903 C15.34968,6.53612903 15.56808,6.31572581 15.56808,6.04548387 C15.56808,5.77524194 15.34968,5.55508065 15.0816,5.55508065 L11.43288,5.55508065 C11.1648,5.55508065 10.94616,5.77524194 10.94616,6.04548387 C10.94616,6.31572581 11.16384,6.53612903 11.43288,6.53612903 L11.43288,6.53612903 L11.43288,6.53612903 Z" id="Fill-7"></path>
                <path d="M11.43288,8.98741935 L15.0816,8.98741935 C15.34968,8.98741935 15.56808,8.76725806 15.56808,8.49701613 C15.56808,8.22677419 15.34968,8.0066129 15.0816,8.0066129 L11.43288,8.0066129 C11.1648,8.0066129 10.94616,8.22677419 10.94616,8.49701613 C10.94616,8.76822581 11.16384,8.98741935 11.43288,8.98741935 L11.43288,8.98741935 L11.43288,8.98741935 Z" id="Fill-8"></path>
            </g>
        </g>
    </g>
</svg>