<?xml version="1.0" encoding="UTF-8" standalone="no"?>
<svg width="22px" height="20px" viewBox="0 0 22 20" version="1.1" xmlns="http://www.w3.org/2000/svg" xmlns:xlink="http://www.w3.org/1999/xlink">
    <!-- Generator: Sketch 3.6.1 (26313) - http://www.bohemiancoding.com/sketch -->
    <title>Fill 1</title>
    <desc>Created with Sketch.</desc>
    <defs></defs>
    <g id="Page-2" stroke="none" stroke-width="1" fill="none" fill-rule="evenodd" fill-opacity="0.33">
        <g id="Menu" transform="translate(-51.000000, -193.000000)" fill="#030303">
            <g id="Group-8">
                <g id="Group-4" transform="translate(51.000000, 192.000000)">
                    <path d="M21.7253119,10.3801064 L11.8319148,1.67935681 C11.370899,1.27354773 10.6240152,1.27354773 10.1691463,1.67935681 L0.278937835,10.3801064 C-0.182077877,10.7859154 -0.0591787719,11.1147349 0.555508845,11.1147349 L3.60731761,11.1147349 L3.60731761,20.0246703 C3.60731761,20.5101583 4.00697981,20.9128171 4.49561805,20.9128171 L8.2298069,20.9128171 L8.2298069,15.0518091 C8.2298069,14.5661674 8.62943069,14.1635471 9.11806893,14.1635471 L12.8891775,14.1635471 C13.380966,14.1635471 13.7774395,14.557024 13.7774395,15.0518091 L13.7774395,20.9128171 L17.5116283,20.9128171 C18.0034168,20.9128171 18.3998904,20.5133086 18.3998904,20.0246703 L18.3998904,11.1116999 L21.4517375,11.1116999 C22.0572817,11.1116999 22.1801808,10.7859154 21.7253119,10.3801064 L21.7253119,10.3801064 Z" id="Fill-1"></path>
                </g>
            </g>
        </g>
    </g>
</svg>