<?xml version="1.0" encoding="UTF-8" standalone="no"?>
<svg width="16px" height="17px" viewBox="0 0 16 17" version="1.1" xmlns="http://www.w3.org/2000/svg" xmlns:xlink="http://www.w3.org/1999/xlink">
    <!-- Generator: Sketch 3.6.1 (26313) - http://www.bohemiancoding.com/sketch -->
    <title>life</title>
    <desc>Created with Sketch.</desc>
    <defs></defs>
    <g id="Page-2" stroke="none" stroke-width="1" fill="none" fill-rule="evenodd">
        <g id="Profile" transform="translate(-31.000000, -714.000000)" fill="#FFFFFF">
            <g id="life" transform="translate(31.000000, 714.000000)">
                <g id="icon-business">
                    <g id="New-Icons">
                        <g id="icon-business">
                            <g id="Imported-Layers">
                                <path d="M0.00763076923,16.5020889 L7.51335385,16.5020889 L7.51335385,6.46554074 L0.00763076923,6.46554074 L0.00763076923,16.5020889 L0.00763076923,16.5020889 Z M4.3808,7.63337778 L6.30473846,7.63337778 L6.30473846,9.60386667 L4.3808,9.60386667 L4.3808,7.63337778 L4.3808,7.63337778 Z M4.3808,10.949763 L6.30473846,10.949763 L6.30473846,12.9212593 L4.3808,12.9212593 L4.3808,10.949763 L4.3808,10.949763 Z M1.21452308,7.63337778 L3.13944615,7.63337778 L3.13944615,9.60386667 L1.21452308,9.60386667 L1.21452308,7.63337778 L1.21452308,7.63337778 Z M1.21452308,10.949763 L3.13944615,10.949763 L3.13944615,12.9212593 L1.21452308,12.9212593 L1.21452308,10.949763 L1.21452308,10.949763 Z" id="Fill-1"></path>
                                <path d="M8.38375385,0.141540741 L8.38375385,16.5020889 L15.8914462,16.5020889 L15.8914462,0.141540741 L8.38375385,0.141540741 L8.38375385,0.141540741 Z M11.5172923,12.9212593 L9.59138462,12.9212593 L9.59138462,10.949763 L11.5163077,10.949763 L11.5163077,12.9212593 L11.5172923,12.9212593 L11.5172923,12.9212593 Z M11.5172923,9.60386667 L9.59138462,9.60386667 L9.59138462,7.63337778 L11.5163077,7.63337778 L11.5163077,9.60386667 L11.5172923,9.60386667 L11.5172923,9.60386667 Z M11.5172923,6.46554074 L9.59138462,6.46554074 L9.59138462,4.49681481 L11.5163077,4.49681481 L11.5163077,6.46554074 L11.5172923,6.46554074 L11.5172923,6.46554074 Z M11.5172923,3.32922963 L9.59138462,3.32922963 L9.59138462,1.3594963 L11.5163077,1.3594963 L11.5163077,3.32922963 L11.5172923,3.32922963 L11.5172923,3.32922963 Z M14.6835692,12.9212593 L12.7596308,12.9212593 L12.7596308,10.949763 L14.6835692,10.949763 L14.6835692,12.9212593 L14.6835692,12.9212593 Z M14.6835692,9.60386667 L12.7596308,9.60386667 L12.7596308,7.63337778 L14.6835692,7.63337778 L14.6835692,9.60386667 L14.6835692,9.60386667 Z M14.6835692,6.46554074 L12.7596308,6.46554074 L12.7596308,4.49681481 L14.6835692,4.49681481 L14.6835692,6.46554074 L14.6835692,6.46554074 Z M14.6835692,3.32922963 L12.7596308,3.32922963 L12.7596308,1.3594963 L14.6835692,1.3594963 L14.6835692,3.32922963 L14.6835692,3.32922963 Z" id="Fill-2"></path>
                            </g>
                        </g>
                    </g>
                </g>
            </g>
        </g>
    </g>
</svg>