<?xml version="1.0" encoding="UTF-8" standalone="no"?>
<svg width="13px" height="14px" viewBox="0 0 13 14" version="1.1" xmlns="http://www.w3.org/2000/svg" xmlns:xlink="http://www.w3.org/1999/xlink">
    <!-- Generator: Sketch 3.6.1 (26313) - http://www.bohemiancoding.com/sketch -->
    <title>Like</title>
    <desc>Created with Sketch.</desc>
    <defs></defs>
    <g id="Page-2" stroke="none" stroke-width="1" fill="none" fill-rule="evenodd" fill-opacity="0.44">
        <g id="Timeline" transform="translate(-118.000000, -431.000000)" fill="#030303">
            <g id="Post-Copy-2" transform="translate(16.000000, 335.000000)">
                <g id="Group" transform="translate(102.000000, 96.000000)">
                    <path d="M13,5.76875 C13,4.55 11.8625,4.0625 11.2125,4.0625 L9.425,4.0625 C9.75,3.25 9.99375,2.275 9.83125,1.54375 C9.425,0.08125 8.20625,0 7.8,0 L7.71875,0 C7.39375,0 7.23125,0.1625 7.06875,0.40625 L6.25625,2.68125 L4.0625,4.875 L-8.8817842e-16,4.875 L-8.8817842e-16,12.1875 L4.0625,12.1875 L4.0625,11.375 C4.225,11.375 4.63125,11.61875 5.0375,11.8625 C6.0125,12.35 7.39375,13.08125 8.69375,13.08125 C10.64375,13.08125 11.29375,12.8375 11.78125,12.025 C12.025,11.5375 12.025,11.13125 12.025,10.8875 C12.1875,10.725 12.43125,10.48125 12.5125,10.075 C12.59375,9.66875 12.59375,9.425 12.5125,9.18125 C12.675,8.9375 12.8375,8.6125 12.91875,8.125 C12.91875,7.71875 12.8375,7.39375 12.75625,7.15 C12.8375,6.825 13,6.41875 13,5.76875 L13,5.76875 Z M2.03125,10.96875 C1.54375,10.96875 1.21875,10.64375 1.21875,10.15625 C1.21875,9.66875 1.54375,9.34375 2.03125,9.34375 C2.51875,9.34375 2.84375,9.66875 2.84375,10.15625 C2.84375,10.64375 2.51875,10.96875 2.03125,10.96875 L2.03125,10.96875 Z M11.94375,7.39375 C11.94375,7.39375 12.10625,7.55625 12.10625,7.9625 C12.10625,8.45 11.78125,8.69375 11.78125,8.69375 L11.5375,8.9375 L11.7,9.18125 C11.7,9.18125 11.8625,9.425 11.7,9.75 C11.61875,10.075 11.29375,10.31875 11.29375,10.31875 L11.05,10.5625 L11.2125,10.8875 C11.2125,10.8875 11.375,11.2125 11.13125,11.61875 C10.96875,11.94375 10.80625,12.1875 8.775,12.1875 C7.6375,12.1875 6.3375,11.5375 5.44375,11.05 C4.79375,10.725 4.3875,10.5625 4.0625,10.5625 L4.0625,10.5625 L4.0625,5.6875 L4.14375,5.6875 C4.30625,5.6875 4.46875,5.60625 4.63125,5.525 L6.90625,3.25 C6.9875,3.16875 6.9875,3.0875 7.06875,3.00625 L7.88125,0.8125 C8.2875,0.8125 8.85625,0.975 9.01875,1.70625 C9.1,2.19375 8.9375,3.00625 8.53125,3.98125 C8.45,4.225 8.45,4.3875 8.6125,4.63125 C8.69375,4.79375 8.9375,4.875 9.18125,4.875 L11.2125,4.875 C11.29375,4.875 12.1875,5.0375 12.1875,5.76875 C12.1875,6.41875 11.94375,6.74375 11.94375,6.74375 L11.7,7.06875 L11.94375,7.39375 L11.94375,7.39375 Z" id="Like" transform="translate(6.500000, 6.540625) scale(-1, 1) translate(-6.500000, -6.540625) "></path>
                </g>
            </g>
        </g>
    </g>
</svg>