<?xml version="1.0" encoding="UTF-8" standalone="no"?>
<svg width="22px" height="22px" viewBox="0 0 22 22" version="1.1" xmlns="http://www.w3.org/2000/svg" xmlns:xlink="http://www.w3.org/1999/xlink">
    <!-- Generator: Sketch 3.6.1 (26313) - http://www.bohemiancoding.com/sketch -->
    <title>social</title>
    <desc>Created with Sketch.</desc>
    <defs></defs>
    <g id="Page-2" stroke="none" stroke-width="1" fill="none" fill-rule="evenodd" fill-opacity="0.33">
        <g id="Menu" transform="translate(-51.000000, -264.000000)" fill="#030303">
            <g id="Group-8">
                <g id="Group-6" transform="translate(51.000000, 264.000000)">
                    <path d="M13.6982786,14.9583454 C13.1563677,14.8721838 13.1438663,13.3818217 13.1438663,13.3818217 C13.1438663,13.3818217 14.736507,11.8052368 15.0836045,9.68527019 C16.0171643,9.68527019 16.5938217,7.43152646 15.6600167,6.63848468 C15.6990529,5.80377159 16.860273,0.0856713092 10.9815543,0.0856713092 C5.10289694,0.0856713092 6.26411699,5.80377159 6.30309192,6.63848468 C5.36928691,7.43152646 5.94594429,9.68527019 6.87956546,9.68527019 C7.22666295,11.8052368 8.81924234,13.3818217 8.81924234,13.3818217 C8.81924234,13.3818217 8.80680223,14.8721838 8.26483008,14.9583454 C6.51904735,15.2360724 0,18.111454 0,21.264624 L21.9631086,21.264624 C21.9631086,18.111454 15.4441226,15.2360724 13.6982786,14.9583454 L13.6982786,14.9583454 Z" id="social"></path>
                </g>
            </g>
        </g>
    </g>
</svg>