<?xml version="1.0" encoding="UTF-8" standalone="no"?>
<svg width="13px" height="10px" viewBox="0 0 13 10" version="1.1" xmlns="http://www.w3.org/2000/svg" xmlns:xlink="http://www.w3.org/1999/xlink">
    <!-- Generator: Sketch 3.6.1 (26313) - http://www.bohemiancoding.com/sketch -->
    <title>Reply</title>
    <desc>Created with Sketch.</desc>
    <defs></defs>
    <g id="Page-2" stroke="none" stroke-width="1" fill="none" fill-rule="evenodd" fill-opacity="0.44">
        <g id="Timeline" transform="translate(-166.000000, -433.000000)" fill="#030303">
            <g id="Post-Copy-2" transform="translate(16.000000, 335.000000)">
                <g id="Group-2" transform="translate(150.000000, 96.000000)">
                    <path d="M11.0275615,6.71870445 C9.72320694,5.41434993 7.87802249,4.68263886 5.5874487,4.58719829 L5.5874487,2.58294622 C5.5874487,2.10574335 4.98299173,1.7876081 4.60122943,2.1693704 L0.179149472,6.59145035 C-0.0753587267,6.84595855 -0.0435452018,7.22772085 0.179149472,7.418602 L4.60122943,11.840682 C4.98299173,12.2224443 5.5874487,11.904309 5.5874487,11.4271061 L5.5874487,9.39104054 L6.0964651,9.39104054 C7.78258192,9.39104054 10.7730533,9.67736227 11.9183402,11.7134279 C12.0137807,11.904309 12.2364754,11.9997496 12.4273566,11.9997496 C12.7773053,11.9997496 13,11.7134279 13,11.4271061 C13,11.3316656 13,8.691143 11.0275615,6.71870445 L11.0275615,6.71870445 Z M6.0964651,8.21394012 C5.39656755,8.21394012 4.98299173,8.27756717 4.9511782,8.27756717 C4.66485648,8.3093807 4.41034828,8.5638889 4.41034828,8.85021062 L4.41034828,10.027311 L1.41987694,7.00502618 L4.41034828,3.98274131 L4.41034828,5.15984173 C4.41034828,5.47797698 4.69667001,5.73248518 5.01480525,5.73248518 C9.27781759,5.73248518 10.8684938,7.9276184 11.4729508,9.58192169 C9.81864751,8.4366348 7.52807372,8.21394012 6.0964651,8.21394012 L6.0964651,8.21394012 Z" id="Reply"></path>
                </g>
            </g>
        </g>
    </g>
</svg>