<?xml version="1.0" encoding="UTF-8" standalone="no"?>
<svg width="21px" height="21px" viewBox="0 0 21 21" version="1.1" xmlns="http://www.w3.org/2000/svg" xmlns:xlink="http://www.w3.org/1999/xlink">
    <!-- Generator: Sketch 3.6.1 (26313) - http://www.bohemiancoding.com/sketch -->
    <title>tool</title>
    <desc>Created with Sketch.</desc>
    <defs></defs>
    <g id="Page-2" stroke="none" stroke-width="1" fill="none" fill-rule="evenodd" fill-opacity="0.33">
        <g id="Menu" transform="translate(-51.000000, -229.000000)" fill="#030303">
            <g id="Group-8">
                <g id="Group-5" transform="translate(51.000000, 228.000000)">
                    <path d="M13.3809694,3.79186824 C10.3239529,0.734851765 5.34791529,0.734851765 2.29089882,3.79186824 C-0.763632941,6.84971294 -0.763632941,11.8216094 2.29089882,14.8794541 C5.01496471,17.6002071 9.25304471,17.8917459 12.3067482,15.7656659 C12.3721788,16.0696282 12.5204329,16.3611671 12.75648,16.5972141 L17.2049318,21.0489788 C17.8559247,21.6958306 18.9036424,21.6958306 19.5480094,21.0489788 C20.1981741,20.4021271 20.1981741,19.3535812 19.5480094,18.7067294 L15.0987294,14.2549647 C14.8626824,14.0189176 14.5719718,13.8731482 14.2680094,13.8085459 C16.3932612,10.7507012 16.1017224,6.51262118 13.3809694,3.79186824 L13.3809694,3.79186824 Z M11.9737976,13.4755953 C9.69283765,15.7557271 5.97903059,15.7557271 3.69807059,13.4755953 C1.41711059,11.1913224 1.41711059,7.48 3.69807059,5.19572706 C5.97903059,2.91559529 9.69283765,2.91559529 11.9737976,5.19572706 C14.2547576,7.48 14.2547576,11.1913224 11.9737976,13.4755953 L11.9737976,13.4755953 Z" id="tool"></path>
                </g>
            </g>
        </g>
    </g>
</svg>